<svg xmlns="http://www.w3.org/2000/svg" aria-hidden="true" style="position:absolute;width:0;height:0;overflow:hidden">
  <defs>
    <symbol id="icon-search-com" viewBox="0 0 32 32">
    <path d="M14 5.333c-4.786 0-8.667 3.88-8.667 8.667s3.88 8.667 8.667 8.667c4.787 0 8.667-3.88 8.667-8.667s-3.88-8.667-8.667-8.667zM2.667 14c0-6.259 5.074-11.333 11.333-11.333s11.333 5.074 11.333 11.333c0 2.649-0.909 5.086-2.432 7.016l4.87 4.87c0.521 0.521 0.521 1.365 0 1.886s-1.365 0.521-1.886 0l-4.87-4.87c-1.93 1.523-4.367 2.432-7.016 2.432-6.259 0-11.333-5.074-11.333-11.333zM12.667 9.333c0-0.736 0.597-1.333 1.333-1.333 3.314 0 6 2.686 6 6 0 0.736-0.597 1.333-1.333 1.333s-1.333-0.597-1.333-1.333c0-1.841-1.492-3.333-3.333-3.333-0.736 0-1.333-0.597-1.333-1.333z"></path>
</symbol>
  </defs>
</svg>